<mxfile host="app.diagrams.net" modified="2020-11-27T15:30:45.640Z" agent="5.0 (Windows NT 10.0; Win64; x64) AppleWebKit/537.36 (KHTML, like Gecko) Chrome/86.0.4240.198 Safari/537.36" etag="QbEi3DVWB_WRy3tdr-nF" version="13.10.0" type="github">
  <diagram id="C5RBs43oDa-KdzZeNtuy" name="Page-1">
    <mxGraphModel dx="1422" dy="737" grid="1" gridSize="10" guides="1" tooltips="1" connect="1" arrows="1" fold="1" page="1" pageScale="1" pageWidth="827" pageHeight="1169" math="0" shadow="0">
      <root>
        <mxCell id="WIyWlLk6GJQsqaUBKTNV-0" />
        <mxCell id="WIyWlLk6GJQsqaUBKTNV-1" parent="WIyWlLk6GJQsqaUBKTNV-0" />
        <mxCell id="OdCLt2OOnm5bx-fZwDz4-3" value="" style="edgeStyle=orthogonalEdgeStyle;rounded=0;orthogonalLoop=1;jettySize=auto;html=1;" edge="1" parent="WIyWlLk6GJQsqaUBKTNV-1" source="WIyWlLk6GJQsqaUBKTNV-3">
          <mxGeometry relative="1" as="geometry">
            <mxPoint x="429" y="190" as="targetPoint" />
          </mxGeometry>
        </mxCell>
        <mxCell id="WIyWlLk6GJQsqaUBKTNV-3" value="Массив несортированных&lt;br&gt;значений" style="rounded=1;whiteSpace=wrap;html=1;fontSize=12;glass=0;strokeWidth=1;shadow=0;" parent="WIyWlLk6GJQsqaUBKTNV-1" vertex="1">
          <mxGeometry x="369" y="110" width="120" height="40" as="geometry" />
        </mxCell>
        <mxCell id="OdCLt2OOnm5bx-fZwDz4-15" value="" style="edgeStyle=orthogonalEdgeStyle;rounded=0;orthogonalLoop=1;jettySize=auto;html=1;entryX=0.5;entryY=0;entryDx=0;entryDy=0;" edge="1" parent="WIyWlLk6GJQsqaUBKTNV-1" source="OdCLt2OOnm5bx-fZwDz4-0" target="OdCLt2OOnm5bx-fZwDz4-5">
          <mxGeometry relative="1" as="geometry" />
        </mxCell>
        <mxCell id="OdCLt2OOnm5bx-fZwDz4-0" value="Объявление промежуточной переменной int Val= 0" style="rounded=1;whiteSpace=wrap;html=1;fontSize=12;glass=0;strokeWidth=1;shadow=0;" vertex="1" parent="WIyWlLk6GJQsqaUBKTNV-1">
          <mxGeometry x="364" y="180" width="130" height="60" as="geometry" />
        </mxCell>
        <mxCell id="OdCLt2OOnm5bx-fZwDz4-20" value="" style="edgeStyle=orthogonalEdgeStyle;rounded=0;orthogonalLoop=1;jettySize=auto;html=1;" edge="1" parent="WIyWlLk6GJQsqaUBKTNV-1" source="OdCLt2OOnm5bx-fZwDz4-4" target="OdCLt2OOnm5bx-fZwDz4-9">
          <mxGeometry relative="1" as="geometry" />
        </mxCell>
        <mxCell id="OdCLt2OOnm5bx-fZwDz4-22" style="edgeStyle=orthogonalEdgeStyle;rounded=0;orthogonalLoop=1;jettySize=auto;html=1;exitX=0;exitY=0.5;exitDx=0;exitDy=0;entryX=0;entryY=0.5;entryDx=0;entryDy=0;" edge="1" parent="WIyWlLk6GJQsqaUBKTNV-1" source="OdCLt2OOnm5bx-fZwDz4-4" target="OdCLt2OOnm5bx-fZwDz4-8">
          <mxGeometry relative="1" as="geometry">
            <Array as="points">
              <mxPoint x="309" y="510" />
              <mxPoint x="309" y="430" />
            </Array>
          </mxGeometry>
        </mxCell>
        <mxCell id="OdCLt2OOnm5bx-fZwDz4-23" style="edgeStyle=orthogonalEdgeStyle;rounded=0;orthogonalLoop=1;jettySize=auto;html=1;exitX=0;exitY=0.5;exitDx=0;exitDy=0;entryX=0;entryY=0.5;entryDx=0;entryDy=0;" edge="1" parent="WIyWlLk6GJQsqaUBKTNV-1" source="OdCLt2OOnm5bx-fZwDz4-4" target="OdCLt2OOnm5bx-fZwDz4-7">
          <mxGeometry relative="1" as="geometry">
            <Array as="points">
              <mxPoint x="309" y="510" />
              <mxPoint x="309" y="360" />
            </Array>
          </mxGeometry>
        </mxCell>
        <mxCell id="OdCLt2OOnm5bx-fZwDz4-4" value="МНЗ[j]&amp;gt;МНЗ[j+1]" style="rhombus;whiteSpace=wrap;html=1;" vertex="1" parent="WIyWlLk6GJQsqaUBKTNV-1">
          <mxGeometry x="369" y="480" width="120" height="60" as="geometry" />
        </mxCell>
        <mxCell id="OdCLt2OOnm5bx-fZwDz4-16" value="" style="edgeStyle=orthogonalEdgeStyle;rounded=0;orthogonalLoop=1;jettySize=auto;html=1;entryX=0.5;entryY=0;entryDx=0;entryDy=0;" edge="1" parent="WIyWlLk6GJQsqaUBKTNV-1" source="OdCLt2OOnm5bx-fZwDz4-5" target="OdCLt2OOnm5bx-fZwDz4-7">
          <mxGeometry relative="1" as="geometry" />
        </mxCell>
        <mxCell id="OdCLt2OOnm5bx-fZwDz4-5" value="Объявление переменной N= Length МНЗ" style="rounded=1;whiteSpace=wrap;html=1;fontSize=12;glass=0;strokeWidth=1;shadow=0;" vertex="1" parent="WIyWlLk6GJQsqaUBKTNV-1">
          <mxGeometry x="369" y="270" width="120" height="40" as="geometry" />
        </mxCell>
        <mxCell id="OdCLt2OOnm5bx-fZwDz4-18" value="" style="edgeStyle=orthogonalEdgeStyle;rounded=0;orthogonalLoop=1;jettySize=auto;html=1;" edge="1" parent="WIyWlLk6GJQsqaUBKTNV-1" source="OdCLt2OOnm5bx-fZwDz4-7" target="OdCLt2OOnm5bx-fZwDz4-8">
          <mxGeometry relative="1" as="geometry" />
        </mxCell>
        <mxCell id="OdCLt2OOnm5bx-fZwDz4-21" style="edgeStyle=orthogonalEdgeStyle;rounded=0;orthogonalLoop=1;jettySize=auto;html=1;exitX=1;exitY=0.5;exitDx=0;exitDy=0;entryX=1;entryY=0.5;entryDx=0;entryDy=0;entryPerimeter=0;" edge="1" parent="WIyWlLk6GJQsqaUBKTNV-1" source="OdCLt2OOnm5bx-fZwDz4-7" target="OdCLt2OOnm5bx-fZwDz4-11">
          <mxGeometry relative="1" as="geometry">
            <Array as="points">
              <mxPoint x="569" y="360" />
              <mxPoint x="569" y="685" />
            </Array>
          </mxGeometry>
        </mxCell>
        <mxCell id="OdCLt2OOnm5bx-fZwDz4-7" value="&lt;span&gt;Начало цикла&lt;/span&gt;&lt;br&gt;&lt;span&gt;i=1; i&amp;lt;n-1; i++&lt;/span&gt;" style="shape=hexagon;perimeter=hexagonPerimeter2;whiteSpace=wrap;html=1;fixedSize=1;" vertex="1" parent="WIyWlLk6GJQsqaUBKTNV-1">
          <mxGeometry x="369" y="340" width="120" height="40" as="geometry" />
        </mxCell>
        <mxCell id="OdCLt2OOnm5bx-fZwDz4-19" value="" style="edgeStyle=orthogonalEdgeStyle;rounded=0;orthogonalLoop=1;jettySize=auto;html=1;entryX=0.5;entryY=0;entryDx=0;entryDy=0;" edge="1" parent="WIyWlLk6GJQsqaUBKTNV-1" source="OdCLt2OOnm5bx-fZwDz4-8" target="OdCLt2OOnm5bx-fZwDz4-4">
          <mxGeometry relative="1" as="geometry">
            <mxPoint x="429" y="470" as="targetPoint" />
          </mxGeometry>
        </mxCell>
        <mxCell id="OdCLt2OOnm5bx-fZwDz4-26" style="edgeStyle=orthogonalEdgeStyle;rounded=0;orthogonalLoop=1;jettySize=auto;html=1;exitX=1;exitY=0.5;exitDx=0;exitDy=0;entryX=0;entryY=0.5;entryDx=0;entryDy=0;" edge="1" parent="WIyWlLk6GJQsqaUBKTNV-1" source="OdCLt2OOnm5bx-fZwDz4-8" target="OdCLt2OOnm5bx-fZwDz4-7">
          <mxGeometry relative="1" as="geometry">
            <Array as="points">
              <mxPoint x="540" y="430" />
              <mxPoint x="540" y="650" />
              <mxPoint x="280" y="650" />
              <mxPoint x="280" y="360" />
            </Array>
          </mxGeometry>
        </mxCell>
        <mxCell id="OdCLt2OOnm5bx-fZwDz4-8" value="Начало цикла&lt;br&gt;j=1; j&amp;lt;n-i; j++" style="shape=hexagon;perimeter=hexagonPerimeter2;whiteSpace=wrap;html=1;fixedSize=1;" vertex="1" parent="WIyWlLk6GJQsqaUBKTNV-1">
          <mxGeometry x="369" y="410" width="120" height="40" as="geometry" />
        </mxCell>
        <mxCell id="OdCLt2OOnm5bx-fZwDz4-9" value="Val= МНЗ[j]&lt;br&gt;МНЗ[j]=МНЗ[j+1]&lt;br&gt;МНЗ[j+1]= Val" style="rounded=1;whiteSpace=wrap;html=1;fontSize=12;glass=0;strokeWidth=1;shadow=0;" vertex="1" parent="WIyWlLk6GJQsqaUBKTNV-1">
          <mxGeometry x="364" y="570" width="130" height="60" as="geometry" />
        </mxCell>
        <mxCell id="OdCLt2OOnm5bx-fZwDz4-11" value="Конец" style="strokeWidth=2;html=1;shape=mxgraph.flowchart.terminator;whiteSpace=wrap;" vertex="1" parent="WIyWlLk6GJQsqaUBKTNV-1">
          <mxGeometry x="379" y="670" width="100" height="30" as="geometry" />
        </mxCell>
        <mxCell id="OdCLt2OOnm5bx-fZwDz4-13" value="" style="edgeStyle=orthogonalEdgeStyle;rounded=0;orthogonalLoop=1;jettySize=auto;html=1;" edge="1" parent="WIyWlLk6GJQsqaUBKTNV-1" source="OdCLt2OOnm5bx-fZwDz4-12" target="WIyWlLk6GJQsqaUBKTNV-3">
          <mxGeometry relative="1" as="geometry" />
        </mxCell>
        <mxCell id="OdCLt2OOnm5bx-fZwDz4-12" value="Начало" style="strokeWidth=2;html=1;shape=mxgraph.flowchart.terminator;whiteSpace=wrap;" vertex="1" parent="WIyWlLk6GJQsqaUBKTNV-1">
          <mxGeometry x="379" y="40" width="100" height="30" as="geometry" />
        </mxCell>
        <mxCell id="OdCLt2OOnm5bx-fZwDz4-24" value="Нет" style="text;html=1;align=center;verticalAlign=middle;resizable=0;points=[];autosize=1;" vertex="1" parent="WIyWlLk6GJQsqaUBKTNV-1">
          <mxGeometry x="310" y="410" width="40" height="20" as="geometry" />
        </mxCell>
        <mxCell id="OdCLt2OOnm5bx-fZwDz4-25" value="Да" style="text;html=1;align=center;verticalAlign=middle;resizable=0;points=[];autosize=1;" vertex="1" parent="WIyWlLk6GJQsqaUBKTNV-1">
          <mxGeometry x="424" y="540" width="30" height="20" as="geometry" />
        </mxCell>
      </root>
    </mxGraphModel>
  </diagram>
</mxfile>
